<svg width="526" height="645" viewBox="0 0 526 645" fill="none" xmlns="http://www.w3.org/2000/svg">
<path fill-rule="evenodd" clip-rule="evenodd" d="M491.631 -111.791C478.103 -116.852 465.279 -117.522 447.489 -114.096C401.969 -105.328 348.912 -66.9892 308.311 -13.5234C289.228 11.6084 276.305 32.6722 258.453 67.7375L245.102 93.9616L224.178 99.1817C163.042 114.43 104.224 137.357 69.8903 159.323C40.5458 178.097 31.946 185.764 9.64581 213.035C-7.95722 234.564 -10.6335 238.621 -16.6471 252.893C-27.868 279.526 -31.8993 302.44 -30.1376 329.601C-28.8675 349.184 -23.7356 366.673 -12.9367 388.213C-0.416973 413.182 11.8955 429.478 32.0017 447.69C47.9132 462.101 48.9075 463.35 47.1483 466.708C41.5748 477.36 -1.03663 540.903 -9.857 551.715L-12.4115 554.848L-17.5023 545.591C-21.3251 538.64 -25.8715 533.614 -35.7436 525.419C-61.0312 504.43 -90.8248 499.202 -117.279 511.107C-128.298 516.065 -130.291 517.679 -137.674 527.613C-147.611 540.98 -150.66 551.947 -149.26 569.286C-147.275 593.878 -130.601 619.561 -108.309 632.362C-92.681 641.334 -77.573 645.206 -61.9534 644.237C-46.0305 643.251 -33.8755 638.23 -21.7618 627.63C-0.756701 609.248 46.1061 547.78 74.8605 500.89C80.5833 491.56 85.8524 483.191 86.5715 482.293C87.2907 481.395 91.5133 481.885 95.9543 483.379C100.395 484.873 111.49 486.989 120.608 488.081C178.85 495.054 228.212 473.666 263.483 426.178C278.084 406.516 284.039 394.079 289.343 372.154C299.588 329.806 283.274 288.202 245.657 260.738C237.746 254.96 228.187 248.884 224.418 247.232C220.649 245.581 217.523 243.765 217.47 243.197C217.417 242.627 229.445 218.248 244.197 189.019C258.95 159.79 271.577 134.596 272.255 133.031C273.012 131.29 290.96 126.302 318.521 120.176C382.561 105.943 400.478 100.374 426.2 86.7062C446.762 75.7823 456.925 67.6555 474.467 48.1164C510.442 8.04271 529.177 -35.0083 524.867 -67.7049C521.842 -90.6675 511.528 -104.347 491.631 -111.791ZM483.902 -64.0179C485.759 -55.3675 481.957 -40.3782 473.352 -22.4276C463.677 -2.24651 437.802 29.6039 422.255 40.468C400.438 55.7167 375.065 64.9744 324.32 76.2059L297.866 82.0621L302.506 72.763C318.81 40.0872 352.732 -5.51142 376.965 -27.3323C412.609 -59.425 448.815 -76.9708 472.783 -73.7642C481.104 -72.6516 482.269 -71.6288 483.902 -64.0179ZM198.744 186.624C187.125 209.642 176.739 229.526 175.665 230.812C174.59 232.098 170.418 232.848 166.39 232.478C162.362 232.108 152.96 232.249 145.498 232.79C133.054 233.691 131.483 234.312 126.537 240.286C122.27 245.441 121.207 248.512 121.443 255.002C121.695 261.954 122.727 264.022 128.197 268.551C133.319 272.791 136.655 273.923 144.323 274.025L153.992 274.152L149.773 282.191C127.049 325.486 107.559 361.622 92.3391 388.684C82.3132 406.511 73.3652 422.56 72.4559 424.348C70.8963 427.417 70.0966 426.931 58.2927 415.728C37.2414 395.749 19.1248 365.576 13.4862 341.108C10.0237 326.078 10.7946 305.573 15.4868 287.918C30.4114 231.771 82.9968 188.12 172.115 157.909C195.284 150.054 219.706 142.991 219.809 144.114C219.842 144.478 210.363 163.607 198.744 186.624ZM239.466 312.151C258.233 340.191 253.368 373.148 225.553 406.399C201.151 435.572 177.763 447.142 142.016 447.728C135.129 447.842 124.965 447.054 119.428 445.978L109.36 444.021L130.453 406.147C149.627 371.721 192.705 291.22 195.838 283.964C198.967 276.713 228.528 295.812 239.466 312.151ZM-49.7892 573.858C-47.5605 579.204 -46.7824 585.38 -47.7334 590.176L-49.2612 597.891L-56.6017 600.888C-76.7115 609.098 -104.75 590.36 -107.524 566.854C-108.924 554.994 -105.102 548.784 -95.0582 546.599C-79.6736 543.256 -56.8002 557.028 -49.7892 573.858Z" fill="#F74539" fill-opacity="0.17"/>
</svg>
